<svg xmlns="http://www.w3.org/2000/svg" xmlns:xlink="http://www.w3.org/1999/xlink" width="593" height="249" viewBox="0 0 593 249"><defs><clipPath id="b"><rect width="593" height="249"/></clipPath></defs><g id="a" clip-path="url(#b)"><path d="M79.866-28.188Q79.866-13.746,69.687-6T39.324,1.74A96.213,96.213,0,0,1,22.272.435,70.185,70.185,0,0,1,8-3.828v-21.4a98.912,98.912,0,0,0,16.53,5.742,64.392,64.392,0,0,0,15.66,2.262q7.482,0,10.788-2.262A6.882,6.882,0,0,0,54.288-25.4a7.54,7.54,0,0,0-1.305-4.35q-1.305-1.914-5.655-4.35a139.715,139.715,0,0,0-13.572-6.264,92.057,92.057,0,0,1-14.7-7.569,24.534,24.534,0,0,1-8.439-9.048Q7.83-62.292,7.83-70.3,7.83-83.52,18.1-90.132t27.318-6.612A79.286,79.286,0,0,1,62.292-95a78.047,78.047,0,0,1,16.53,5.742l-7.83,18.618Q64.032-73.6,57.768-75.6a41.509,41.509,0,0,0-12.7-2q-11.484,0-11.484,6.264a6.335,6.335,0,0,0,1.479,4.089A17.479,17.479,0,0,0,40.8-63.336q4.263,2.088,12.615,5.568a100.051,100.051,0,0,1,14.094,6.873,26.026,26.026,0,0,1,9.135,8.961Q79.866-36.54,79.866-28.188Zm-3.132-105.1v1.74q-2.436,2.436-6.438,5.916t-8.613,7.308q-4.611,3.828-9.048,7.221t-7.743,5.655H27.666v-2.262q2.784-3.306,6.525-7.743t7.308-9.222q3.567-4.785,6.177-8.613ZM122.67,0,86.478-95h27.144l18.27,54.114A71.165,71.165,0,0,1,134.328-30.8q.87,5.22,1.218,9.4h.7A76.175,76.175,0,0,1,140.07-40.89L158.34-95h27.144L149.292,0ZM238.032-96.918q19.14,0,29.319,8.265T277.53-63.336V0h-18.1l-5.046-12.876h-.7A40.383,40.383,0,0,1,240.816-1.74Q234.03,1.74,222.2,1.74q-12.7,0-21.054-7.308t-8.352-22.794q0-15.138,10.614-22.272t31.842-8l16.53-.522v-4.176q0-7.482-3.915-10.962t-10.875-3.48a46.6,46.6,0,0,0-13.572,2,111.4,111.4,0,0,0-13.224,4.959l-8.526-17.574a79.067,79.067,0,0,1,16.878-6.177A80.052,80.052,0,0,1,238.032-96.918Zm13.746,52.9-10.092.348q-12.528.348-17.4,4.524a13.739,13.739,0,0,0-4.872,10.962q0,5.916,3.48,8.439a15.052,15.052,0,0,0,9.048,2.523,20.811,20.811,0,0,0,14.094-4.959q5.742-4.959,5.742-14.007ZM357.222-96.744q1.914,0,4.524.174a28.922,28.922,0,0,1,4.176.522l-1.914,24.36a29.622,29.622,0,0,0-3.654-.609,35.378,35.378,0,0,0-4-.261,34.994,34.994,0,0,0-12.7,2.349,21.221,21.221,0,0,0-9.831,7.569q-3.741,5.22-3.741,14.268V0H304.152V-95h19.662L327.642-79h1.218a39.279,39.279,0,0,1,11.484-12.528A28.294,28.294,0,0,1,357.222-96.744Zm61.422-.174q19.14,0,29.319,8.265t10.179,25.317V0h-18.1L435-12.876h-.7A40.383,40.383,0,0,1,421.428-1.74q-6.786,3.48-18.618,3.48-12.7,0-21.054-7.308T373.4-28.362q0-15.138,10.614-22.272t31.842-8l16.53-.522v-4.176q0-7.482-3.915-10.962T417.6-77.778a46.6,46.6,0,0,0-13.572,2A111.4,111.4,0,0,0,390.8-70.818l-8.526-17.574a79.067,79.067,0,0,1,16.878-6.177A80.052,80.052,0,0,1,418.644-96.918Zm13.746,52.9-10.092.348q-12.528.348-17.4,4.524a13.739,13.739,0,0,0-4.872,10.962q0,5.916,3.48,8.439a15.052,15.052,0,0,0,9.048,2.523,20.811,20.811,0,0,0,14.094-4.959q5.742-4.959,5.742-14.007Z" transform="translate(61 192)" fill="#fff"/></g></svg>